<?xml version="1.0" encoding="UTF-8" standalone="no"?>
<!-- Created with Inkscape (http://www.inkscape.org/) -->

<svg
   xmlns:dc="http://purl.org/dc/elements/1.1/"
   xmlns:cc="http://creativecommons.org/ns#"
   xmlns:rdf="http://www.w3.org/1999/02/22-rdf-syntax-ns#"
   xmlns:svg="http://www.w3.org/2000/svg"
   xmlns="http://www.w3.org/2000/svg"
   xmlns:sodipodi="http://sodipodi.sourceforge.net/DTD/sodipodi-0.dtd"
   xmlns:inkscape="http://www.inkscape.org/namespaces/inkscape"
   width="555.8299"
   height="466.53296"
   id="svg2"
   version="1.1"
   inkscape:version="0.48.5 r10040"
   sodipodi:docname="logo.svg"
   inkscape:export-filename="C:\Users\Cubey\Dropbox\Public\Art\lotus.png"
   inkscape:export-xdpi="90"
   inkscape:export-ydpi="90">
  <defs
     id="defs4" />
  <sodipodi:namedview
     id="base"
     pagecolor="#ffffff"
     bordercolor="#666666"
     borderopacity="1.0"
     inkscape:pageopacity="0.0"
     inkscape:pageshadow="2"
     inkscape:zoom="0.50640609"
     inkscape:cx="395.14598"
     inkscape:cy="106.78465"
     inkscape:document-units="px"
     inkscape:current-layer="layer1"
     showgrid="false"
     inkscape:window-width="730"
     inkscape:window-height="703"
     inkscape:window-x="0"
     inkscape:window-y="640"
     inkscape:window-maximized="0"
     fit-margin-top="50"
     fit-margin-left="50"
     fit-margin-right="50"
     fit-margin-bottom="50" />
  <metadata
     id="metadata7">
    <rdf:RDF>
      <cc:Work
         rdf:about="">
        <dc:format>image/svg+xml</dc:format>
        <dc:type
           rdf:resource="http://purl.org/dc/dcmitype/StillImage" />
        <dc:title></dc:title>
      </cc:Work>
    </rdf:RDF>
  </metadata>
  <g
     inkscape:label="Layer 1"
     inkscape:groupmode="layer"
     id="layer1"
     transform="translate(-86.044251,-295.30995)">
    <path
       style="fill:#ff6000;fill-opacity:1"
       d="m 399.77192,339.19027 -1.08124,1.26144 c -17.01333,19.99544 -39.62028,24.76736 -52.85159,53.05754 -2.91413,-9.5531 -12.65935,-22.08737 -21.77332,-28.38082 -10.2574,-9.40029 -26.31791,-16.77948 -37.61715,-24.9599 -15.90559,26.20166 -38.13801,50.41238 -42.78584,81.7359 -0.90096,3.44767 -0.44383,7.64414 -1.72482,10.70933 -2.80408,-0.12339 -4.14704,-3.57481 -6.77057,-4.50513 -15.82591,-10.36956 -34.95243,-13.47119 -52.90308,-18.74133 -3.73182,28.21335 -7.8944,57.40452 -1.41589,85.57169 3.1418,15.18277 9.51959,29.46125 17.53138,42.5799 2.36708,7.62482 -0.82296,15.76696 0.77231,23.60687 4.27377,40.99324 40.731,76.27071 81.94185,78.54369 3.35272,0.66916 5.78374,-3.59576 2.29118,-5.2002 -7.19383,-3.43414 -15.32269,-4.58218 -22.34544,-8.6241 -26.53255,-12.77689 -48.84764,-37.98256 -51.82185,-67.93734 -0.96322,-12.90757 1.94661,-27.64201 12.22821,-36.16974 5.0045,1.14951 5.68674,7.61843 9.31918,10.68359 18.23108,23.05734 56.26774,62.19584 77.28226,82.55969 l 7.59436,7.51713 c 4.59013,5.08655 9.89232,10.51325 13.74708,15.72933 -3.06144,-13.48294 1.27643,-27.98751 10.88954,-37.7401 13.92645,-13.04369 30.68713,-22.58461 47.41969,-31.61313 13.32148,-6.81143 27.29345,-13.17408 41.93631,-15.96102 13.55754,3.44927 20.25094,17.40896 28.06051,27.80307 7.92091,12.9894 14.1868,30.28993 6.59036,44.66513 -5.32016,6.40969 -12.68318,10.69725 -17.55713,17.60862 15.40012,-1.26237 31.11175,-11.21792 34.77959,-26.77334 2.98419,-11.19065 -2.41156,-22.18596 -7.028,-32.07651 17.86943,-33.29005 35.67438,-67.29121 60.88359,-95.66318 4.25704,-0.11936 4.622,5.36988 4.17047,8.46964 1.87822,28.58297 -12.38279,54.54477 -24.9198,79.23877 -7.34037,12.21998 -16.17245,23.4618 -24.22472,35.21723 12.0277,1.01946 22.21298,-7.28631 28.31795,-16.73333 19.20827,-28.53355 36.25076,-61.4972 33.74985,-96.97611 -0.8333,-14.01717 -5.04579,-27.74256 -12.12523,-39.79959 -5.74559,12.96422 -12.57679,26.93197 -24.45641,34.77959 -1.76296,-15.11203 -2.22017,-30.68003 -7.74882,-45.07702 -7.45667,-23.61049 -20.82462,-45.16653 -38.152,-62.81436 -2.19766,15.26816 -8.11629,29.93146 -17.09375,42.5799 -5.55116,-29.68041 -23.67167,-55.15774 -44.69087,-76.14954 -2.00502,-4.5096 -4.3673,-9.00135 -8.41815,-12.02226 z m -3.47539,22.9118 c 14.0725,4.71767 20.71037,19.1339 29.32195,29.96553 8.77501,13.47228 15.83101,28.31555 18.58687,44.20175 -11.74997,-16.1588 -19.88603,-34.87879 -33.67261,-49.50493 -7.31677,10.28756 -9.48611,17.23641 -16.83631,24.07026 -9.8103,13.15716 -21.72537,24.75894 -30.58339,38.5639 -3.33685,-9.80845 -7.84405,-18.63391 -13.15497,-26.9278 0.59638,-5.31776 0.68335,-13.38282 0.64359,-18.2522 11.07967,-24.00147 18.84988,-29.42237 36.53015,-38.95005 2.79416,-1.5653 5.93745,-3.23795 9.16472,-3.16646 z m -106.4755,1.004 c 8.78792,-0.23503 27.75299,7.26459 32.16513,12.46845 10.89167,9.26705 17.64873,27.17667 17.64873,27.17667 0.40223,2.40732 1.07702,5.03911 1.82779,7.64585 -5.42907,-7.0521 -11.39653,-13.81137 -17.63436,-20.62062 -3.33938,13.47773 -14.91206,20.46493 -25.48616,28.49816 -7.49903,7.31833 -13.88088,15.74559 -20.05426,24.22472 1.17643,-7.15853 2.62119,-14.27842 2.85754,-21.54739 -14.8921,8.14714 -19.97147,25.47915 -28.72984,38.71836 -5.63662,-34.10095 6.18809,-70.84954 30.99528,-94.7879 1.74219,-1.17574 3.94954,-1.7105 6.41015,-1.7763 z m 125.31981,44.22748 c 8.2661,8.82605 15.38816,22.15752 19.69385,32.77159 9.08212,18.03558 15.96559,39.37232 9.37066,59.33898 -0.76566,3.22904 -1.5512,6.4947 -2.70307,9.55087 -7.3041,-8.44274 -12.8938,-18.25774 -21.13549,-25.84656 -18.90881,14.35896 -44.15451,21.29466 -57.82011,41.70461 -5.93735,7.97444 -9.88874,22.83981 -10.70933,26.104 -0.9,1.89641 -1.57557,3.84217 -2.1882,5.8438 -2.58232,-17.07015 -3.85499,-34.67418 -11.55888,-50.35446 -8.06631,-18.73214 -21.17386,-42.64118 -35.39743,-57.22801 0,0 -8.546,9.92349 -11.84206,13.38667 -5.1668,5.77689 -9.77447,12.12366 -15.57488,17.32544 3.04367,-29.33802 21.7127,-58.20998 50.30299,-67.98882 10.63498,0.38734 15.73893,11.46823 20.82656,19.17897 8.10666,12.0505 13.63548,21.53258 10.70934,35.80933 -0.33319,3.35342 -14.78074,36.77511 3.21795,6.30718 13.93762,-22.97381 26.13097,-47.31252 48.65252,-63.09468 1.72832,-1.02497 4.11044,-2.64062 6.15558,-2.80891 z m 60.75487,1.13272 c 11.62323,6.65696 14.01971,21.16402 18.38093,32.7201 6.14878,23.92405 5.68504,49.19519 2.72882,73.54944 -1.50348,3.81121 -4.59231,6.76469 -7.56862,9.52513 -4.00418,-30.47674 -10.48331,-59.25951 -26.22415,-85.79482 -0.86536,0.58636 -6.7657,7.70355 -6.83633,6.37579 3.70247,-11.36612 10.07304,-27.75184 18.74704,-36.09246 0.23759,-0.053 0.52499,-0.32245 0.77231,-0.28318 z m -279.08627,16.6561 c 15.24868,2.78931 32.89153,4.80611 42.91457,18.072 6.32587,14.25386 4.89279,30.30244 6.64184,45.48893 -0.34019,15.24367 1.30132,30.63512 6.8478,44.81959 0.21024,2.59549 -0.17334,5.68903 -1.77631,7.64585 -12.73398,-13.27809 -18.56091,-31.36184 -23.04051,-48.73262 -10.43439,9.60814 -17.57636,22.42185 -24.5079,34.3162 -14.31461,-29.87846 -21.36404,-64.92992 -12.27969,-97.36225 1.23678,-1.85559 2.84951,-4.00303 5.2002,-4.2477 z m 70.17703,28.67836 0.0772,0.61785 c 0.6739,10.53377 -0.91182,21.21931 1.004,31.63887 -0.75544,10.75999 -5.33308,20.78618 -11.12123,29.70811 -3.28456,-20.99813 0.24332,-43.12673 10.04,-61.96483 z m 196.47509,9.98852 c 8.10855,3.96893 7.61956,14.66528 9.96277,22.19097 6.41345,25.52747 9.44457,54.86367 -4.60811,78.41498 -1.4801,1.70104 -3.63731,5.48156 -5.58635,4.94277 -8.39703,-12.62636 -12.58697,-38.59224 -13.4353,-44.9111 -0.34693,-12.77361 3.82752,-23.86071 4.47367,-36.55019 1.87252,-8.6392 2.89292,-17.61217 9.19332,-24.08743 z m -164.55303,7.72307 c 16.71283,7.93363 24.10463,26.02984 32.17949,41.36995 9.02207,20.9864 13.12405,43.91391 12.76882,66.75313 -10.40007,6.83099 -20.77211,15.7039 -23.86431,28.26646 -2.62624,2.06593 -3.08572,1.64479 -5.38041,0.43765 -11.40474,-12.43686 -29.67044,-30.38266 -33.59539,-35.03703 -6.058,-6.13579 -12.21996,-12.17988 -18.3037,-18.30369 0.38345,-31.07608 12.03002,-63.13732 36.1955,-83.48647 z m 39.38769,23.63262 c -1.78523,5.25522 5.21502,8.42805 9.37067,6.10123 7.22174,-3.04553 16.67798,-4.7627 25.65468,0.72318 5.88535,3.59669 10.40874,1.32721 6.47332,-4.97087 -9.43583,-8.02088 -25.61352,-12.6329 -41.49867,-1.85354 z m 79.75364,3.16646 c 8.98645,-0.11523 13.16986,9.52769 16.45016,16.37292 3.73756,10.56957 8.44371,20.80481 10.65784,31.79334 -6.17937,-8.45818 -10.8842,-17.99605 -18.12348,-25.6921 -7.9371,19.96338 -29.19878,28.58845 -46.67313,38.30646 -8.10296,4.37129 -16.02747,9.71242 -23.78708,14.28769 -2.31253,-5.71453 0.55952,-11.94011 0.92677,-17.84031 2.75833,-5.91796 9.12883,-19.20458 11.31571,-22.24246 10.55277,-16.89981 25.74441,-28.31937 44.44491,-34.36769 1.58974,-0.39874 3.1421,-0.59531 4.7883,-0.61785 z"
       id="path3035"
       inkscape:connector-curvature="0"
       sodipodi:nodetypes="ccccccccccccccccccccccccccccccccccccccccccccccccccccscccccccccsccccccccccccccccccccccccccccccccccccccccccccccccsccccccsccscccccccccccc"
       inkscape:export-filename="/Users/angelaharms/develop/maitria.github.com/graphics/use3777.png"
       inkscape:export-xdpi="90"
       inkscape:export-ydpi="90" />
    <text
       xml:space="preserve"
       style="font-size:40px;font-style:normal;font-weight:normal;line-height:125%;letter-spacing:0px;word-spacing:0px;fill:#000000;fill-opacity:1;stroke:none;font-family:Sans"
       x="-244.5267"
       y="483.34906"
       id="text3031"
       sodipodi:linespacing="125%"><tspan
         sodipodi:role="line"
         id="tspan3033"
         x="-244.5267"
         y="483.34906" /></text>
    <flowRoot
       xml:space="preserve"
       id="flowRoot3208"
       style="font-size:40px;font-style:normal;font-weight:normal;line-height:125%;letter-spacing:0px;word-spacing:0px;fill:#000000;fill-opacity:1;stroke:none;font-family:Sans"
       transform="translate(-1.9890707,162.84241)"><flowRegion
         id="flowRegion3210"><rect
           id="rect3212"
           width="261.21292"
           height="58.605461"
           x="8.3722086"
           y="804.5448" /></flowRegion><flowPara
         id="flowPara3214" /></flowRoot>    <text
       xml:space="preserve"
       style="font-size:40px;font-style:normal;font-weight:normal;line-height:125%;letter-spacing:0px;word-spacing:0px;fill:#000000;fill-opacity:1;stroke:none;font-family:Sans"
       x="100.15189"
       y="1062.8304"
       id="text3216"
       sodipodi:linespacing="125%"><tspan
         sodipodi:role="line"
         id="tspan3218"
         x="100.15189"
         y="1062.8304" /></text>
    <path
       sodipodi:nodetypes="cccccscccccccccccscccccssssscccccscccscccccccccsccsssccccccccccccsccccccccsccccccsccccsccccccscccccsccccsccsccccccsscscccccccccccccccsssccccccsccccccccccccccccscccccccccsccssccccccccccccccsccccccccsccccccccccccccccsscccccccccccccccccccccccccccccccccccccc"
       inkscape:connector-curvature="0"
       id="use3777"
       style="fill:#000000;fill-opacity:1;stroke:#000000;stroke-width:0;stroke-linecap:butt;stroke-linejoin:miter;stroke-miterlimit:4;stroke-opacity:1;stroke-dasharray:none"
       d="m 345.24509,673.40403 c 0.2839,10.09319 0.22518,20.19314 0.18745,30.28828 0,2.12726 0.25455,4.07542 0.74978,5.84209 0.49522,1.73064 1.24326,3.22119 2.23375,4.48311 0.9904,1.22585 2.21428,2.18916 3.67083,2.87418 1.48565,0.72109 3.22072,1.07782 5.20165,1.07782 2.09739,0 3.92535,-0.27145 5.49844,-0.81227 1.60216,-0.54081 3.00965,-1.28069 4.23318,-2.21812 1.22344,-0.97346 2.30124,-2.10732 3.23345,-3.40528 0.96128,-1.29797 3.34494,-5.84653 3.59273,-9.263 l -0.0156,-12.32463 c -1.87393,5.67834 -4.18682,11.09822 -8.15393,15.52685 -0.5244,0.54081 -1.0888,1.03569 -1.6714,1.46833 -0.58262,0.39662 -1.11372,0.5936 -1.60892,0.59358 -0.84483,2e-5 -1.51984,-0.43118 -2.01505,-1.2965 -0.46611,-0.86531 -0.70294,-1.87664 -0.70294,-3.0304 l -0.10934,-29.41353 c -2.00257,0.85066 -4.30345,1.32775 -6.74808,1.32775 -2.79024,0 -5.38936,-0.63158 -7.57598,-1.71826 z m 39.72311,-33.25619 c -0.43697,2.70418 -1.0943,5.2541 -1.9682,7.6697 -0.84481,2.37967 -1.88499,4.47677 -3.10849,6.27946 -2.14799,3.13656 -3.16167,4.19336 -8.24766,5.48283 -5.08599,1.28946 -14.78594,-1.57126 -18.7603,-1.21841 -3.97436,0.35287 -7.15422,2.81958 -7.15422,5.85771 0,3.03813 3.17242,5.49845 7.09173,5.49845 3.91931,0 7.09175,-2.46032 7.09175,-5.49845 0,-0.54109 -0.0934,-1.0681 -0.28118,-1.56205 3.87701,1.60908 7.67537,2.43588 10.90316,3.09287 l 0,0.0156 0.0625,0 c 3.9957,0.81246 7.07324,1.36442 7.93524,2.74922 0.0959,11.26524 0.0469,23.55505 0.0469,35.17752 -10e-6,2.12725 0.25455,4.07542 0.74978,5.84209 0.4952,1.73063 1.22766,3.22119 2.21813,4.4831 0.99041,1.22586 2.21429,2.18917 3.67083,2.87418 1.48568,0.7211 3.22071,1.07782 5.20165,1.07782 2.09737,0 3.94097,-0.27144 5.51406,-0.81226 1.60217,-0.54081 3.00967,-1.2807 4.23318,-2.21812 1.22346,-0.97347 2.30122,-2.10732 3.23345,-3.40529 0.96129,-1.29796 3.32934,-5.84653 3.57711,-9.26299 l -0.0156,-12.32463 c -1.87391,5.67833 -4.18683,11.09821 -8.15393,15.52684 -0.5244,0.54082 -1.07318,1.0357 -1.65578,1.46834 -0.58264,0.39661 -1.12933,0.59359 -1.62454,0.59358 -0.84482,10e-6 -1.5042,-0.43118 -1.99943,-1.29651 -0.4661,-0.86531 -0.70292,-1.87664 -0.70292,-3.03039 l 0,-34.0997 c 1.26026,-1.9282 4.12243,-5.14647 10.99687,-7.45101 0.13335,1.33096 1.56035,2.38995 3.31156,2.38995 1.83921,0 3.32718,-1.16732 3.32718,-2.59302 0,-1.13969 -0.94321,-2.09461 -2.2452,-2.4646 -1.302,-0.37 -4.02875,-0.88924 -7.72072,-0.84696 -2.23087,0.0255 -4.82811,0.2522 -7.66969,0.87475 l 0,-18.86964 z m -14.43341,25.61774 -1.37461,0.0156 1.37461,0 z m 117.40419,-7.74781 c -2.73831,9e-5 -5.34982,0.37242 -7.82591,1.09344 -2.44699,0.68511 -4.62029,1.64357 -6.51377,2.90543 -1.86437,1.26198 -3.34489,2.76815 -4.45187,4.49872 -1.10695,1.69461 -1.6714,3.54192 -1.6714,5.56092 0,1.04563 0.16378,2.04617 0.48424,2.98353 0.34956,0.90142 0.82323,1.68935 1.40586,2.37433 0.58262,0.64902 1.27748,1.18108 2.09315,1.57768 0.84479,0.36055 1.75875,0.53112 2.74922,0.53109 1.31087,3e-5 2.37094,-0.23417 3.1866,-0.70292 0.8448,-0.46866 1.50207,-1.07043 1.96819,-1.82761 0.4952,-0.79316 0.8405,-1.70842 1.01533,-2.71798 0.2039,-1.0095 0.29677,-2.06888 0.2968,-3.1866 -3e-5,-0.93736 0.10847,-1.82619 0.31241,-2.65549 0.20391,-0.82921 0.5336,-1.54267 0.99972,-2.15564 0.46608,-0.64896 1.0858,-1.15458 1.84322,-1.51519 0.75737,-0.36053 1.69121,-0.54665 2.82732,-0.54673 0.96128,8e-5 1.83562,0.18625 2.59302,0.54673 0.7865,0.36061 1.42819,0.95154 1.95257,1.78074 0.55347,0.79325 0.98954,1.84182 1.28089,3.13974 0.3204,1.29801 0.4686,2.86304 0.46861,4.70179 l 0,5.79523 -1.56205,0.42175 c -1.89353,0.7572 -3.82786,1.5343 -5.77961,2.32747 -1.95177,0.79323 -3.83504,1.67122 -5.67027,2.60863 -6.10262,2.97338 -11.42304,7.80966 -14.62085,12.59018 -1.62652,2.43153 -2.89007,5.09611 -4.87362,7.31042 -0.5244,0.54083 -1.07317,1.02006 -1.65578,1.45272 -0.58262,0.3966 -1.11372,0.59361 -1.60892,0.59358 -0.84482,3e-5 -1.51983,-0.43118 -2.01505,-1.29651 -0.46609,-0.86529 -0.70154,-1.87664 -0.70293,-3.03039 0.0577,-9.79001 -0.10982,-19.57737 0,-29.36666 -1.96308,0.80738 -4.19912,1.26526 -6.57625,1.26526 -2.8846,0 -5.5633,-0.67246 -7.79467,-1.82761 -0.027,10.13891 0.0709,20.27454 0.12496,30.41325 0.0133,2.1272 0.25456,4.07542 0.74979,5.8421 0.49523,1.73064 1.22764,3.2368 2.21813,4.49871 0.99039,1.22586 2.21429,2.17353 3.67082,2.85857 1.48568,0.72108 3.22074,1.07782 5.20165,1.07782 2.09739,0 3.94096,-0.27145 5.51406,-0.81227 1.60216,-0.54081 3.00965,-1.2807 4.23318,-2.21812 1.22345,-0.97347 2.30124,-2.1073 3.23346,-3.40529 0.51477,-0.69505 1.43816,-2.31977 2.21812,-4.20193 0.14926,0.71829 0.34132,1.4142 0.57796,2.09316 0.64088,1.83879 1.55484,3.45669 2.74922,4.82676 1.22347,1.33402 2.70189,2.36694 4.42062,3.12411 1.74784,0.75713 3.68638,1.1403 5.84209,1.1403 1.60219,0 2.98985,-0.14893 4.15508,-0.43737 1.16523,-0.28841 2.20544,-0.68241 3.10849,-1.18717 0.93218,-0.54083 1.77313,-1.15817 2.53053,-1.84323 0.75741,-0.68504 1.52529,-1.43572 2.31184,-2.26498 l 0,4.65493 c 11.3597,-3.49987 21.467,2.85588 30.20975,2.94331 7.5906,-0.007 10.77865,-2.46694 10.77865,-5.50509 0,-3.03812 -3.18805,-5.49843 -7.10736,-5.49843 -3.74934,0 -6.81688,2.25267 -7.07611,5.10793 -6.6719,-0.661 -12.76777,-6.89281 -12.71301,-14.10941 l 0.20093,-26.47284 c -5e-5,-2.4156 -0.38297,-4.59799 -1.1403,-6.54501 -0.75746,-1.94689 -1.91038,-3.61282 -3.48339,-4.98296 -1.57311,-1.37002 -3.5982,-2.4294 -6.04516,-3.1866 -2.41789,-0.75708 -5.28814,-1.14021 -8.63817,-1.1403 z m -40.42603,0.67168 c -12.32781,-0.0151 -17.34505,2.84612 -20.63477,4.54559 l 0,-0.76541 0,-3.17097 -14.1991,0 0,58.67085 14.1991,-0.98409 0,-37.41127 c -0.0376,-2.52793 3.83555,-13.99533 13.93354,-14.99574 0.25924,2.85526 3.32678,5.10792 7.07613,5.10792 3.9193,0 7.09173,-2.4603 7.09173,-5.49843 0,-3.03814 -3.17243,-5.49845 -7.09173,-5.49845 -0.13029,0 -0.26196,0.0103 -0.39052,0.0156 0.006,-0.004 0.01,-0.0111 0.0156,-0.0156 z m 45.44023,28.69499 0,16.82335 c -1.42744,1.33404 -2.74414,2.45707 -3.96762,3.35842 -1.19436,0.86533 -2.36291,1.29651 -3.49901,1.29651 -0.58262,0 -1.13142,-0.22341 -1.65578,-0.65607 -0.49524,-0.43265 -0.95119,-1.0128 -1.35899,-1.73388 -0.40786,-0.75715 -0.73544,-1.61951 -0.96847,-2.59301 -0.23294,-1.0095 -0.34367,-2.06888 -0.34365,-3.1866 -2e-5,-1.4061 0.34741,-2.73694 1.04657,-3.99886 0.72823,-1.29793 1.65997,-2.50628 2.79609,-3.62397 1.13607,-1.15374 2.41311,-2.20229 3.81141,-3.13974 1.39826,-0.97345 2.77028,-1.82504 4.13945,-2.54615 z m -169.09005,0.004 c -1.36918,0.72112 -2.75288,1.5684 -4.15114,2.54185 -1.39831,0.93745 -2.6655,1.98304 -3.80158,3.13677 -1.13611,1.1177 -2.06829,2.32555 -2.79653,3.62348 -0.69916,1.26192 -1.04873,2.59596 -1.04871,4.00206 -2e-5,1.11772 0.11663,2.18133 0.34957,3.19084 0.23304,0.9735 0.55346,1.83881 0.96132,2.59596 0.40779,0.72108 0.85933,1.29796 1.35456,1.73062 0.52435,0.43265 1.07782,0.64899 1.66045,0.64899 1.1361,0 2.30133,-0.43267 3.4957,-1.298 1.22348,-0.90134 2.54891,-2.01904 3.97636,-3.35308 l 0,-16.81949 m 14.28865,29.03102 -14.28865,0.98449 0,-4.65106 c -0.78655,0.82927 -1.55852,1.58641 -2.31592,2.27145 -0.7574,0.68506 -1.60219,1.29797 -2.53437,1.8388 -0.90305,0.50476 -1.9372,0.90138 -3.10243,1.18978 -1.16522,0.28845 -2.54893,0.43267 -4.15111,0.43267 -2.15571,0 -4.10745,-0.37857 -5.85529,-1.1357 -1.71873,-0.75717 -3.18984,-1.80275 -4.41331,-3.13677 -1.19438,-1.37007 -2.11199,-2.97451 -2.75287,-4.8133 -0.64088,-1.83878 -0.96131,-3.8218 -0.96131,-5.94904 0,-2.23536 0.33501,-4.23639 1.00501,-6.00308 0.69913,-1.80274 1.63133,-3.4252 2.79656,-4.86739 1.19435,-1.44216 2.57807,-2.74012 4.15113,-3.8939 1.60218,-1.15374 3.30633,-2.19932 5.11244,-3.13674 1.83523,-0.93742 3.72873,-1.80273 5.68049,-2.59596 1.95176,-0.79317 3.87439,-1.56833 5.76792,-2.32553 l 1.57306,-0.43265 0,-5.78679 c -2e-5,-1.83875 -0.16024,-3.40712 -0.48064,-4.70513 -0.29136,-1.29792 -0.71374,-2.3435 -1.26722,-3.13676 -0.52437,-0.8292 -1.17982,-1.4241 -1.96633,-1.78471 -0.7574,-0.36049 -1.61678,-0.54075 -2.57806,-0.54082 -1.13611,7e-5 -2.08289,0.18028 -2.84026,0.54082 -0.75742,0.36061 -1.36914,0.86536 -1.83522,1.51431 -0.46612,0.61297 -0.80112,1.33407 -1.00503,2.16328 -0.20393,0.8293 -0.3059,1.71265 -0.30587,2.65002 -3e-5,1.11771 -0.10199,2.18135 -0.30588,3.19085 -0.17484,1.00956 -0.50979,1.91092 -1.00499,2.70408 -0.46612,0.75719 -1.12153,1.37012 -1.96634,1.83878 -0.81566,0.46876 -1.87894,0.70313 -3.18981,0.70309 -0.99047,4e-5 -1.90805,-0.18026 -2.75286,-0.54081 -0.81567,-0.39659 -1.5148,-0.91939 -2.09742,-1.56842 -0.58262,-0.68498 -1.04871,-1.47817 -1.39826,-2.37959 -0.32046,-0.93736 -0.48066,-1.92889 -0.48066,-2.97452 0,-2.019 0.55347,-3.87582 1.66043,-5.57044 1.10698,-1.73057 2.59265,-3.22682 4.45702,-4.4888 1.89349,-1.26186 4.06373,-2.23534 6.51073,-2.92045 2.47609,-0.72102 5.08329,-1.08155 7.8216,-1.08163 3.35003,8e-5 6.23396,0.37864 8.65184,1.13573 2.44696,0.7572 4.45696,1.82081 6.03007,3.19083 1.57301,1.37014 2.73825,3.02865 3.49571,4.97553 0.75733,1.94702 1.13605,4.12834 1.1361,6.54395 l 0,42.55153 m -88.69145,-57.66768 c -2.21397,7e-5 -4.51559,0.55375 -6.90428,1.6714 -2.34117,1.42539 -2.77009,2.25476 -4.06136,4.49873 l 0,-4.98297 -14.19909,4.71741 0,0.453 c -0.28428,3.10992 -4.2307,13.63144 -13.90231,14.58961 -0.25923,-2.85526 -3.32677,-5.10793 -7.07612,-5.10793 -3.9193,0 -7.09173,2.46031 -7.09173,5.49845 0,3.03812 3.1769,5.52023 13.32434,5.52968 7.63654,0.008 11.67126,-2.82041 14.74582,-4.52997 l 0,36.88016 14.19909,-0.98409 0,-41.62882 c 0,0 0.17717,-2.65935 1.78074,-4.43624 0.74505,-0.82555 1.7503,-1.03446 2.62427,-1.35899 0.87388,-0.36055 1.69502,-0.53105 2.45242,-0.5311 0.64083,5e-5 1.26268,0.24506 1.87447,0.74979 0.61171,0.50481 1.15843,1.19664 1.62454,2.06191 0.46607,0.86534 0.81562,1.87668 1.07782,3.03039 0.29137,1.15379 0.43735,2.37289 0.43738,3.67084 l 0,39.42631 14.16785,-0.98409 0,-41.62882 0.0781,-2.93667 c 0,0 0.63911,-0.92265 1.48395,-1.49957 0.87389,-0.57683 1.75028,-1.03446 2.62426,-1.35899 0.90297,-0.36055 1.76165,-0.53105 2.57739,-0.5311 0.72818,5e-5 1.40325,0.24506 2.01505,0.74979 0.61169,0.50481 1.14066,1.19664 1.57768,2.06191 0.46604,0.86534 0.8135,1.87668 1.04658,3.03039 0.26215,1.15379 0.39046,2.37289 0.39051,3.67084 l 0,39.42631 14.37092,0 0,-40.83217 c -7e-5,-2.55982 -0.38508,-4.95002 -1.17154,-7.18545 -0.7866,-2.23535 -1.86439,-4.18353 -3.23346,-5.8421 -1.34006,-1.65845 -2.9114,-2.96766 -4.71741,-3.90514 -1.77706,-0.97342 -3.67593,-1.45264 -5.68589,-1.45271 -1.45661,7e-5 -2.93498,0.17061 -4.42061,0.53109 -1.45661,0.36062 -2.89955,0.8663 -4.3269,1.5152 -2.78053,1.23883 -2.108,0.89564 -5.99831,3.53025 -0.46403,-0.71804 -0.49567,-0.6771 -1.20278,-1.31213 -0.96136,-0.93738 -2.02138,-1.71448 -3.18659,-2.32746 -1.13613,-0.61287 -2.32451,-1.08129 -3.57712,-1.40586 -1.25263,-0.36054 -2.49424,-0.53102 -3.71769,-0.53109 z"
       inkscape:export-xdpi="90"
       inkscape:export-ydpi="90" />
  </g>
</svg>
